<svg xmlns="http://www.w3.org/2000/svg"  viewBox="0 0 13.081 25.123"><g transform="translate(0)"><path d="M4093.921,1171.519c-.1,0-.161.009-.161.141q.005,5.572,0,11.143v.142h-4.649v-1.723h0q0-4.768,0-9.533c0-.143-.045-.168-.174-.168-1.167,0-2.333,0-3.5,0-.187,0-.187,0-.187-.184V1167.2c0-.181,0-.182.187-.182h3.672v-.175c0-1.064,0-2.128,0-3.192a7.248,7.248,0,0,1,.244-1.894,4.974,4.974,0,0,1,2.478-3.234,6.173,6.173,0,0,1,2.94-.7c.567,0,1.135.015,1.7.041s1.131.076,1.7.111c.123.008.162.057.161.182,0,1.234,0,2.467,0,3.7,0,.172,0,.172-.181.173-.7,0-1.4-.009-2.1,0a5.592,5.592,0,0,0-.971.087,1.43,1.43,0,0,0-1.229,1.2,4.281,4.281,0,0,0-.079.757c-.009.93,0,1.859,0,2.789,0,.043,0,.087.009.148h4.4c0,.081,0,.135-.011.187q-.112.87-.225,1.739c-.1.792-.207,1.583-.307,2.376-.026.2-.02.206-.222.206Z" transform="translate(-4085.25 -1157.822)" fill="#59bfae"/><path d="M4093.921,1171.519c-.1,0-.161.009-.161.141q.005,5.572,0,11.143v.142h-4.649v-1.723h0q0-4.768,0-9.533c0-.143-.045-.168-.174-.168-1.167,0-2.333,0-3.5,0-.187,0-.187,0-.187-.184V1167.2c0-.181,0-.182.187-.182h3.672v-.175c0-1.064,0-2.128,0-3.192a7.248,7.248,0,0,1,.244-1.894,4.974,4.974,0,0,1,2.478-3.234,6.173,6.173,0,0,1,2.94-.7c.567,0,1.135.015,1.7.041s1.131.076,1.7.111c.123.008.162.057.161.182,0,1.234,0,2.467,0,3.7,0,.172,0,.172-.181.173-.7,0-1.4-.009-2.1,0a5.592,5.592,0,0,0-.971.087,1.43,1.43,0,0,0-1.229,1.2,4.281,4.281,0,0,0-.079.757c-.009.93,0,1.859,0,2.789,0,.043,0,.087.009.148h4.4c0,.081,0,.135-.011.187q-.112.87-.225,1.739c-.1.792-.207,1.583-.307,2.376-.026.2-.02.206-.222.206Z" transform="translate(-4085.25 -1157.822)" fill="#fff"/></g></svg>