<svg xmlns="http://www.w3.org/2000/svg"  viewBox="0 0 21.394 21.393"><g transform="translate(0 0)"><g transform="translate(0)"><path d="M1064.724,1480.752a3.672,3.672,0,1,1-3.672-3.672A3.672,3.672,0,0,1,1064.724,1480.752Z" transform="translate(-1050.356 -1470.055)" fill="#59bfae"/><path d="M864.445,1268.55h-9.757a5.818,5.818,0,0,0-5.818,5.818v9.757a5.818,5.818,0,0,0,5.818,5.818h9.757a5.818,5.818,0,0,0,5.818-5.818v-9.757A5.818,5.818,0,0,0,864.445,1268.55Zm-1,14.574a5.484,5.484,0,1,1,0-7.755A5.484,5.484,0,0,1,863.444,1283.124Zm1.846-8.259a1.34,1.34,0,1,1,1.339-1.339,1.34,1.34,0,0,1-1.339,1.339Z" transform="translate(-848.87 -1268.55)" fill="#59bfae"/></g><path d="M1064.724,1480.752a3.672,3.672,0,1,1-3.672-3.672A3.672,3.672,0,0,1,1064.724,1480.752Z" transform="translate(-1050.356 -1470.055)" fill="#fff"/><path d="M864.445,1268.55h-9.757a5.818,5.818,0,0,0-5.818,5.818v9.757a5.818,5.818,0,0,0,5.818,5.818h9.757a5.818,5.818,0,0,0,5.818-5.818v-9.757A5.818,5.818,0,0,0,864.445,1268.55Zm-1,14.574a5.484,5.484,0,1,1,0-7.755A5.484,5.484,0,0,1,863.444,1283.124Zm1.846-8.259a1.34,1.34,0,1,1,1.339-1.339,1.34,1.34,0,0,1-1.339,1.339Z" transform="translate(-848.87 -1268.55)" fill="#fff"/></g></svg>