<svg xmlns="http://www.w3.org/2000/svg"  viewBox="0 0 26.284 25.125"><path d="M1876.517,1182.885v-16.952h-5.634v16.952Zm-2.816-19.266a3.334,3.334,0,1,0-.037,0h.037Zm5.935,19.266h5.634v-9.466a3.87,3.87,0,0,1,.185-1.375,3.084,3.084,0,0,1,2.891-2.061c2.038,0,2.854,1.554,2.854,3.834v9.068h5.634v-9.719c0-5.207-2.78-7.63-6.487-7.63a5.614,5.614,0,0,0-5.116,2.856h.038v-2.458h-5.634c.073,1.59,0,16.952,0,16.952Z" transform="translate(-1870.55 -1157.76)" fill="#59bfae"/><path d="M1876.517,1182.885v-16.952h-5.634v16.952Zm-2.816-19.266a3.334,3.334,0,1,0-.037,0h.037Zm5.935,19.266h5.634v-9.466a3.87,3.87,0,0,1,.185-1.375,3.084,3.084,0,0,1,2.891-2.061c2.038,0,2.854,1.554,2.854,3.834v9.068h5.634v-9.719c0-5.207-2.78-7.63-6.487-7.63a5.614,5.614,0,0,0-5.116,2.856h.038v-2.458h-5.634c.073,1.59,0,16.952,0,16.952Z" transform="translate(-1870.55 -1157.76)" fill="#fff"/></svg>