<svg xmlns="http://www.w3.org/2000/svg" width="66.657" height="59.992" viewBox="0 0 66.657 59.992">
  <path id="server-icon" d="M61.992,3H8.666A6.666,6.666,0,0,0,2,9.666V23a6.666,6.666,0,0,0,6.666,6.666H61.992A6.666,6.666,0,0,0,68.657,23V9.666A6.666,6.666,0,0,0,61.992,3ZM45.327,19.664H38.662V13h6.666Zm13.331,0H51.993V13h6.666Zm3.333,16.664H8.666A6.666,6.666,0,0,0,2,42.994V56.326a6.666,6.666,0,0,0,6.666,6.666H61.992a6.666,6.666,0,0,0,6.666-6.666V42.994a6.666,6.666,0,0,0-6.666-6.666ZM45.327,52.993H38.662V46.327h6.666Zm13.331,0H51.993V46.327h6.666Z" transform="translate(-2 -3)" fill="#fff" opacity="0.9"/>
</svg>
