<svg xmlns="http://www.w3.org/2000/svg" width="58.756" height="59.992" viewBox="0 0 58.756 59.992">
  <path id="settings-icon" d="M22.657,4.349A3,3,0,0,1,25.585,2h12a3,3,0,0,1,2.928,2.349l1.32,5.942a23.981,23.981,0,0,1,3.42,1.98l5.813-1.83a3,3,0,0,1,3.5,1.362l6,10.391a3,3,0,0,1-.57,3.71L55.5,30.022a24.292,24.292,0,0,1,0,3.947l4.49,4.118a3,3,0,0,1,.57,3.71l-6,10.391a3,3,0,0,1-3.5,1.362l-5.81-1.83a24.316,24.316,0,0,1-3.42,1.98l-1.32,5.939a3,3,0,0,1-2.931,2.352h-12a3,3,0,0,1-2.928-2.349L21.337,53.7a23.981,23.981,0,0,1-3.42-1.98L12.1,53.551a3,3,0,0,1-3.5-1.362l-6-10.391a3,3,0,0,1,.57-3.71l4.49-4.118a24.286,24.286,0,0,1,0-3.947l-4.49-4.115a3,3,0,0,1-.57-3.71l6-10.391a3,3,0,0,1,3.5-1.362l5.81,1.83a24.317,24.317,0,0,1,3.42-1.98l1.32-5.939Zm8.927,36.646a9,9,0,1,0-6.363-2.636,9,9,0,0,0,6.363,2.636Z" transform="translate(-2.206 -2)" fill="#fff" fill-rule="evenodd" opacity="0.9"/>
</svg>
