<svg xmlns="http://www.w3.org/2000/svg" viewBox="0 0 25.234 20.516"><g transform="translate(0 0)"><path d="M3024.37,1295.483a14.744,14.744,0,0,0,7.613,4.932,13.357,13.357,0,0,0,3.045.458c-.012-.067-.024-.137-.037-.206a4.166,4.166,0,0,1-.074-.683c0-.087-.015-.174-.013-.261a5.263,5.263,0,0,1,.442-2.089,5.186,5.186,0,0,1,5.149-3.076,5,5,0,0,1,1.748.446,5.231,5.231,0,0,1,1.32.862c.1.086.188.178.277.27a.089.089,0,0,0,.1.026c.123-.027.247-.052.371-.082a9.9,9.9,0,0,0,1.876-.65c.3-.141.592-.305.888-.459a.317.317,0,0,1,.089-.036,4.7,4.7,0,0,1-.842,1.613,5.352,5.352,0,0,1-1.347,1.216,9.377,9.377,0,0,0,1.467-.288,10.49,10.49,0,0,0,1.411-.505l.014.018c-.018.029-.034.059-.053.086a11.08,11.08,0,0,1-.936,1.176,10.228,10.228,0,0,1-1.5,1.347.191.191,0,0,0-.085.179c.005.321.017.64.006.961-.013.361-.042.721-.077,1.081-.028.289-.071.577-.116.864a13.357,13.357,0,0,1-.3,1.392,15.345,15.345,0,0,1-3.3,6.195c-.273.312-.562.609-.861.9a13.6,13.6,0,0,1-2.442,1.862q-.483.288-.987.539a13.231,13.231,0,0,1-1.895.771,14.354,14.354,0,0,1-1.956.484c-.382.067-.765.125-1.152.156-.26.021-.521.037-.782.058-.449.037-.9.017-1.35.017q-.537-.01-1.072-.073-.708-.074-1.407-.216a14.377,14.377,0,0,1-1.851-.505,14.737,14.737,0,0,1-1.472-.6,14.942,14.942,0,0,1-1.557-.853c-.027-.017-.054-.037-.08-.056,0,0,0-.011-.009-.026a10.446,10.446,0,0,0,5.981-1.075,9.988,9.988,0,0,0,1.641-1.048,5.184,5.184,0,0,1-3.911-1.939,4.719,4.719,0,0,1-.88-1.676,5.216,5.216,0,0,0,2.265-.079,5.207,5.207,0,0,1-3.42-2.507,4.916,4.916,0,0,1-.663-2.645,5.18,5.18,0,0,0,2.287.643,5.163,5.163,0,0,1-2.241-3.847A5.083,5.083,0,0,1,3024.37,1295.483Z" transform="translate(-3022.629 -1294.544)" fill="#59bfae"/><path d="M3024.37,1295.483a14.744,14.744,0,0,0,7.613,4.932,13.357,13.357,0,0,0,3.045.458c-.012-.067-.024-.137-.037-.206a4.166,4.166,0,0,1-.074-.683c0-.087-.015-.174-.013-.261a5.263,5.263,0,0,1,.442-2.089,5.186,5.186,0,0,1,5.149-3.076,5,5,0,0,1,1.748.446,5.231,5.231,0,0,1,1.32.862c.1.086.188.178.277.27a.089.089,0,0,0,.1.026c.123-.027.247-.052.371-.082a9.9,9.9,0,0,0,1.876-.65c.3-.141.592-.305.888-.459a.317.317,0,0,1,.089-.036,4.7,4.7,0,0,1-.842,1.613,5.352,5.352,0,0,1-1.347,1.216,9.377,9.377,0,0,0,1.467-.288,10.49,10.49,0,0,0,1.411-.505l.014.018c-.018.029-.034.059-.053.086a11.08,11.08,0,0,1-.936,1.176,10.228,10.228,0,0,1-1.5,1.347.191.191,0,0,0-.085.179c.005.321.017.64.006.961-.013.361-.042.721-.077,1.081-.028.289-.071.577-.116.864a13.357,13.357,0,0,1-.3,1.392,15.345,15.345,0,0,1-3.3,6.195c-.273.312-.562.609-.861.9a13.6,13.6,0,0,1-2.442,1.862q-.483.288-.987.539a13.231,13.231,0,0,1-1.895.771,14.354,14.354,0,0,1-1.956.484c-.382.067-.765.125-1.152.156-.26.021-.521.037-.782.058-.449.037-.9.017-1.35.017q-.537-.01-1.072-.073-.708-.074-1.407-.216a14.377,14.377,0,0,1-1.851-.505,14.737,14.737,0,0,1-1.472-.6,14.942,14.942,0,0,1-1.557-.853c-.027-.017-.054-.037-.08-.056,0,0,0-.011-.009-.026a10.446,10.446,0,0,0,5.981-1.075,9.988,9.988,0,0,0,1.641-1.048,5.184,5.184,0,0,1-3.911-1.939,4.719,4.719,0,0,1-.88-1.676,5.216,5.216,0,0,0,2.265-.079,5.207,5.207,0,0,1-3.42-2.507,4.916,4.916,0,0,1-.663-2.645,5.18,5.18,0,0,0,2.287.643,5.163,5.163,0,0,1-2.241-3.847A5.083,5.083,0,0,1,3024.37,1295.483Z" transform="translate(-3022.629 -1294.544)" fill="#fff"/></g></svg>