<svg xmlns="http://www.w3.org/2000/svg" width="382.685" height="58" viewBox="0 0 382.685 58"><g transform="translate(-200.038 -351.611)"><g transform="translate(283.536 351.611)"><path d="M456.282,412.6a10.419,10.419,0,0,0-5.673-1.49,9.12,9.12,0,0,0-5.086,1.49,10.414,10.414,0,0,0-3.069,3.143v-4.181h-6.139v43.936h6.139v-16.7a8,8,0,0,0,2.768,3.056,9.164,9.164,0,0,0,5.086,1.4,10.984,10.984,0,0,0,5.838-1.49,9.392,9.392,0,0,0,3.7-4.319,16.594,16.594,0,0,0,1.264-6.8v-6.8a17.353,17.353,0,0,0-1.234-6.892A9.355,9.355,0,0,0,456.282,412.6Zm-1.309,18.041a7.521,7.521,0,0,1-1.67,5.221,6.018,6.018,0,0,1-4.71,1.851,6.814,6.814,0,0,1-3.325-.753,5.011,5.011,0,0,1-2.091-2.167,7.468,7.468,0,0,1-.722-3.431v-8.516a7.231,7.231,0,0,1,.722-3.355,4.854,4.854,0,0,1,2.091-2.122,7.052,7.052,0,0,1,3.325-.722,5.945,5.945,0,0,1,4.71,1.9,7.791,7.791,0,0,1,1.67,5.326Z" transform="translate(-436.315 -399.039)" fill="#fff"/><path d="M560.429,412.475a14.877,14.877,0,0,0-6.651-1.369,16.893,16.893,0,0,0-6.455,1.189,11.721,11.721,0,0,0-4.679,3.326l4.484,3.069a10.847,10.847,0,0,1,3.175-1.6,11.954,11.954,0,0,1,3.656-.572,6.162,6.162,0,0,1,4.649,1.7,6.589,6.589,0,0,1,1.64,4.77v1.324h-8.606q-5.3,0-7.914,2.317t-2.619,6.951q0,4.875,2.859,7.268t8.637,2.392a14.04,14.04,0,0,0,3.521-.406,8.731,8.731,0,0,0,2.754-1.219,7.059,7.059,0,0,0,1.369-1.241v2.414h5.838V422.722a12.751,12.751,0,0,0-1.445-6.275A9.51,9.51,0,0,0,560.429,412.475ZM558.518,437.5a13.869,13.869,0,0,1-5.251.752,8.2,8.2,0,0,1-4.8-1.143,4.056,4.056,0,0,1-1.58-3.521,4.172,4.172,0,0,1,1.188-3.265,5.243,5.243,0,0,1,3.6-1.068h8.576v5.9A2.476,2.476,0,0,1,558.518,437.5Z" transform="translate(-509.09 -399.039)" fill="#fff"/><path d="M653.655,434.882l-7.644-22.3H639.6l11.736,31.237h4.634l11.736-31.237H661.3Z" transform="translate(-577.489 -400.064)" fill="#fff"/><path d="M766.2,413.062a11.281,11.281,0,0,0-6.681-1.956,13.9,13.9,0,0,0-7.1,1.715,11.084,11.084,0,0,0-4.5,5,18.4,18.4,0,0,0-1.55,7.915v3.521a16.5,16.5,0,0,0,1.61,7.6,10.863,10.863,0,0,0,4.68,4.77,15.64,15.64,0,0,0,7.4,1.625,14.828,14.828,0,0,0,5.808-1.219,17,17,0,0,0,5.206-3.446l-4.033-4.032a10.672,10.672,0,0,1-3.28,2.107,9.692,9.692,0,0,1-3.7.752,7.789,7.789,0,0,1-5.808-2.076,8,8,0,0,1-2.037-5.688h19.672V427.6a24.2,24.2,0,0,0-1.46-8.878A12.158,12.158,0,0,0,766.2,413.062Zm-13.973,11.646a9.369,9.369,0,0,1,1.891-5.778,6.648,6.648,0,0,1,5.4-2.287,5.541,5.541,0,0,1,4.559,2.122,10.514,10.514,0,0,1,1.971,5.943Z" transform="translate(-651.633 -399.039)" fill="#fff"/><path d="M871.759,411.106a8.816,8.816,0,0,0-5.056,1.55,10.984,10.984,0,0,0-3.1,3.256v-4.355h-6.139v31.237H863.6V423.023a6.041,6.041,0,0,1,1.61-4.469,6.126,6.126,0,0,1,4.529-1.61,7.422,7.422,0,0,1,2.859.512,5.139,5.139,0,0,1,2.046,1.5l4-5.417a8.66,8.66,0,0,0-3.025-1.821A11.465,11.465,0,0,0,871.759,411.106Z" transform="translate(-728.786 -399.039)" fill="#fff"/><path d="M958.734,412.248a8.633,8.633,0,0,0-4.86-1.339,10.389,10.389,0,0,0-5.432,1.429,8.724,8.724,0,0,0-3.024,3.072v-3.99h-4.333v43.936h4.333v-16.6a7.034,7.034,0,0,0,2.739,3,10.277,10.277,0,0,0,5.386,1.354,9.155,9.155,0,0,0,5.041-1.339,8.42,8.42,0,0,0,3.19-3.9,15.6,15.6,0,0,0,1.1-6.169v-9.389a16.166,16.166,0,0,0-1.054-6.184A8.3,8.3,0,0,0,958.734,412.248ZM958.6,431.7a8.375,8.375,0,0,1-1.745,5.657,6.176,6.176,0,0,1-4.935,2.016,6.313,6.313,0,0,1-3.491-.948,6.039,6.039,0,0,1-2.242-2.6,8.7,8.7,0,0,1-.767-3.7V421.743a8.353,8.353,0,0,1,.767-3.611,5.979,5.979,0,0,1,2.242-2.558,6.4,6.4,0,0,1,3.491-.933,6.176,6.176,0,0,1,4.935,2.016,8.376,8.376,0,0,1,1.745,5.657Z" transform="translate(-786.856 -398.902)" fill="#fff"/><rect width="4.364" height="31.237" transform="translate(184.141 12.519)" fill="#fff"/><rect width="4.364" height="4.303" transform="translate(184.141 0.873)" fill="#fff"/><path d="M1095.045,437.926a6.6,6.6,0,0,1-4.123,1.219,7.137,7.137,0,0,1-5.372-1.911,7.623,7.623,0,0,1-1.851-5.522v-9.118a7.869,7.869,0,0,1,1.851-5.642,7.076,7.076,0,0,1,5.372-1.941,6,6,0,0,1,4,1.294,6.69,6.69,0,0,1,2.107,3.7l4.213-1.264a9.047,9.047,0,0,0-1.76-4.2,8.444,8.444,0,0,0-3.536-2.648,15.286,15.286,0,0,0-11.39.452,8.8,8.8,0,0,0-3.882,3.927,13.89,13.89,0,0,0-1.309,6.32v9.118a13.675,13.675,0,0,0,1.324,6.29,8.65,8.65,0,0,0,3.882,3.882,13.763,13.763,0,0,0,6.26,1.294,14.371,14.371,0,0,0,5.131-.843,7.952,7.952,0,0,0,3.536-2.543,9.658,9.658,0,0,0,1.806-4.108l-4.032-1.264A6.386,6.386,0,0,1,1095.045,437.926Z" transform="translate(-882.887 -398.971)" fill="#fff"/><path d="M1193.609,384.13h-5l-14.2,19.084v-31.6h-4.334v43.755h4.334v-6.693l7-8.95,8.5,15.643h5.086l-10.78-19.226Z" transform="translate(-945.882 -371.611)" fill="#fff"/><path d="M1278.57,412.437a11.412,11.412,0,0,0-5.868-1.429,11.594,11.594,0,0,0-6.064,1.5,9.667,9.667,0,0,0-3.837,4.363,16.376,16.376,0,0,0-1.324,6.921v7.192a14.5,14.5,0,0,0,1.369,6.576,9.551,9.551,0,0,0,3.972,4.168,12.749,12.749,0,0,0,6.274,1.445,11.346,11.346,0,0,0,6.62-1.836,8.67,8.67,0,0,0,3.491-5.3l-4.063-1.264a5.94,5.94,0,0,1-2.167,3.205,6.345,6.345,0,0,1-3.882,1.158,7.1,7.1,0,0,1-5.477-2.106,8.385,8.385,0,0,1-1.956-5.928v-2.137h17.906v-5.718a15.662,15.662,0,0,0-1.279-6.636A9.191,9.191,0,0,0,1278.57,412.437Zm.843,12.534H1265.66v-1.5a9.518,9.518,0,0,1,1.836-6.244,6.385,6.385,0,0,1,5.206-2.212,6.051,6.051,0,0,1,4.935,2.107,9.064,9.064,0,0,1,1.776,5.868Z" transform="translate(-1009.356 -398.971)" fill="#fff"/><path d="M1373.727,411.225a5.627,5.627,0,0,0-1.926-.316,12.226,12.226,0,0,0-6.094,1.565,12.047,12.047,0,0,0-3.867,3.454V411.42h-4.334v31.237h4.334V422.886a7.76,7.76,0,0,1,2.483-5.853,9.487,9.487,0,0,1,6.515-2.092,5.47,5.47,0,0,1,1.731.256,3.216,3.216,0,0,1,1.279.767l1.384-3.822A4.26,4.26,0,0,0,1373.727,411.225Z" transform="translate(-1076.044 -398.902)" fill="#fff"/></g><path d="M230,376.268v31.417h-17.89v-6.247h11.643V382.515H193.441v18.924h12.406v31.406H163.038V401.428h17.924v6.247H169.285V426.6H199.6V407.675H187.209V396.412h-.015V376.268Z" transform="translate(37 -23.234)" fill="#fff"/></g></svg>